<svg width="155" height="43" viewBox="0 0 155 43" fill="none" xmlns="http://www.w3.org/2000/svg">
<path d="M90.21 12.0862L99.1306 8.68038L90.21 5.07612V0.300537L105.479 6.62997V10.5265L90.21 16.8618V12.0862ZM5.88422 42.2877C2.66045 42.2877 0 40.6316 0 36.9323V36.7351C0 32.253 3.79403 30.692 8.44403 30.692H10.6268V29.8129C10.6268 27.9597 9.87026 26.8906 7.97325 26.8906C7.64668 26.8483 7.31512 26.8767 6.99989 26.974C6.68466 27.0713 6.39275 27.2352 6.14292 27.4553C5.8931 27.6754 5.6909 27.9468 5.54932 28.252C5.40775 28.5571 5.32994 28.8894 5.3209 29.2273H0.570261C0.948507 25.1288 4.07974 23.1853 8.25202 23.1853C12.518 23.1853 15.6481 25.0385 15.6481 29.6169V41.8933H10.813V39.7466C10.2593 40.5549 9.51951 41.2099 8.65953 41.6532C7.79955 42.0966 6.84611 42.3146 5.88422 42.2877ZM10.6268 35.761V34.01H8.6372C6.16993 34.01 4.93571 34.6919 4.93571 36.3467V36.5439C4.93571 37.8114 5.6922 38.6893 7.40299 38.6893C7.80628 38.7372 8.21487 38.6973 8.60216 38.5723C8.98946 38.4473 9.34678 38.2399 9.65088 37.9637C9.95498 37.6875 10.199 37.3486 10.3672 36.9691C10.5353 36.5896 10.6238 36.178 10.6268 35.761V35.761ZM26.9365 42.2877C22.0007 42.2877 18.3987 39.1681 18.3987 32.9337V32.6474C18.3987 26.4071 22.1928 23.0962 26.9365 23.0962C31.0162 23.0962 34.3325 25.2417 34.7177 30.0113H29.9751C29.6894 28.2603 28.7409 27.0889 27.0359 27.0889C24.9469 27.0889 23.4339 28.84 23.4339 32.4443V33.0299C23.4339 36.7292 24.7607 38.3852 27.0359 38.3852C27.8836 38.3612 28.69 38.0047 29.2896 37.389C29.8892 36.7732 30.2364 35.9449 30.2597 35.0744H34.8172C34.528 39.2655 31.775 42.2877 26.9388 42.2877H26.9365ZM45.5307 42.2877C40.595 42.2877 36.993 39.1681 36.993 32.9337V32.6474C36.993 26.4142 40.787 23.1022 45.5307 23.1022C49.6104 23.1022 52.9267 25.2476 53.3119 30.0173H48.5694C48.2837 28.2662 47.3352 27.0949 45.6302 27.0949C43.5411 27.0949 42.0281 28.8459 42.0281 32.4502V33.0359C42.0281 36.7351 43.3549 38.3912 45.6302 38.3912C46.4778 38.3672 47.2843 38.0107 47.8839 37.3949C48.4834 36.7791 48.8306 35.9508 48.8539 35.0803H53.4044C53.121 39.2655 50.3692 42.2877 45.533 42.2877H45.5307ZM64.2174 42.2877C59.0966 42.2877 55.5872 39.1681 55.5872 33.0359V32.6474C55.5872 26.5092 59.2887 23.1022 64.1249 23.1022C68.5829 23.1022 72.2844 25.6361 72.2844 31.7742V34.0159H60.7103C60.9023 37.3267 62.3227 38.5943 64.4118 38.5943C65.1415 38.6529 65.8688 38.453 66.4724 38.0278C67.0761 37.6026 67.5196 36.9779 67.7292 36.2576H72.3792C71.7153 39.6575 68.9634 42.2877 64.2197 42.2877H64.2174ZM60.7103 30.5934H67.4435C67.351 27.8682 66.1168 26.6969 64.126 26.6969C62.5147 26.8015 61.0885 27.6746 60.7103 30.5934ZM75.3173 23.5845H80.3455V26.3168C80.8588 25.3176 81.642 24.4918 82.601 23.9384C83.56 23.3851 84.6541 23.1277 85.752 23.1972C88.9758 23.1972 91.1585 25.2417 91.1585 29.6288V41.8992H86.1303V30.4057C86.1303 28.2603 85.2743 27.2861 83.4768 27.2861C83.0433 27.2624 82.6099 27.3358 82.2069 27.5013C81.8038 27.6669 81.4407 27.9206 81.1427 28.2448C80.8447 28.569 80.6191 28.956 80.4814 29.3788C80.3438 29.8016 80.2974 30.2501 80.3455 30.6932V41.8933H75.3173V23.5845ZM100.359 18.032V23.5845H103.775V27.3859H100.359V36.058C100.359 37.4206 100.929 38.1025 102.164 38.1025C102.745 38.127 103.326 38.0271 103.869 37.8091V41.8018C102.944 42.0759 101.985 42.2069 101.023 42.1902C97.1353 42.1902 95.3319 40.337 95.3319 36.6377V27.3859H93.2499V23.5845H95.3389V20.1739L100.359 18.032ZM122.555 41.8968H117.522V39.174C117.043 40.1564 116.295 40.9743 115.371 41.5282C114.447 42.082 113.386 42.348 112.317 42.2936C109.093 42.2936 106.719 40.2491 106.719 35.9642V23.5845H111.739V35.2751C111.739 37.4206 112.595 38.3947 114.3 38.3947C114.731 38.4095 115.16 38.33 115.559 38.1614C115.958 37.9927 116.318 37.7389 116.614 37.4167C116.91 37.0945 117.136 36.7112 117.277 36.2925C117.418 35.8737 117.47 35.4289 117.431 34.9877V23.6819H122.459V41.8992L122.555 41.8968ZM126.257 23.5845H131.287V26.9915C131.688 25.871 132.431 24.9139 133.406 24.2641C134.381 23.6142 135.534 23.3065 136.694 23.3873V28.4551C133.278 28.4551 131.287 29.5243 131.287 32.5488V41.9978H126.259L126.257 23.5845ZM146.846 42.2853C141.726 42.2853 138.216 39.1657 138.216 33.0335V32.645C138.216 26.5068 141.918 23.0998 146.754 23.0998C151.212 23.0998 154.913 25.6337 154.913 31.7719V34.0135H143.331C143.523 37.3244 144.944 38.5919 147.033 38.5919C147.762 38.6506 148.49 38.4506 149.093 38.0254C149.697 37.6003 150.14 36.9755 150.35 36.2552H155C154.244 39.6551 151.491 42.2853 146.841 42.2853H146.846ZM143.239 30.5934H149.972C149.879 27.8682 148.645 26.6969 146.654 26.6969C145.136 26.8015 143.709 27.6746 143.239 30.5934Z" fill="#8989A2"/>
</svg>
