<svg width="156" height="50" viewBox="0 0 156 50" fill="none" xmlns="http://www.w3.org/2000/svg">
<path d="M82.208 12.6106C82.2082 13.2413 82.0226 13.858 81.6746 14.3825C81.3266 14.9071 80.8318 15.316 80.2529 15.5576C79.6739 15.7991 79.0368 15.8624 78.4221 15.7395C77.8074 15.6166 77.2428 15.313 76.7995 14.8671C76.3563 14.4212 76.0544 13.853 75.9321 13.2343C75.8097 12.6157 75.8724 11.9745 76.1122 11.3917C76.3519 10.809 76.758 10.3109 77.2791 9.96042C77.8002 9.60997 78.4128 9.42292 79.0395 9.42292C79.4558 9.42197 79.8681 9.50374 80.2529 9.66358C80.6376 9.82343 80.9872 10.0582 81.2816 10.3543C81.576 10.6505 81.8094 11.0023 81.9684 11.3895C82.1273 11.7767 82.2088 12.1917 82.208 12.6106V12.6106ZM69.1467 19.0364V19.8213C68.5475 19.1685 67.8144 18.6547 66.9981 18.3157C66.1818 17.9767 65.302 17.8204 64.4198 17.8579C61.8928 17.907 59.4858 18.9517 57.716 20.7677C55.9461 22.5836 54.9546 25.0258 54.9546 27.5696C54.9546 30.1133 55.9461 32.5555 57.716 34.3715C59.4858 36.1874 61.8928 37.2322 64.4198 37.2812C65.3072 37.3246 66.1929 37.1663 67.0112 36.8181C67.8295 36.4698 68.5594 35.9406 69.1467 35.2697V36.1027C69.1446 36.1935 69.1608 36.2838 69.1944 36.3681C69.228 36.4524 69.2782 36.5289 69.3421 36.5931C69.4059 36.6572 69.4821 36.7077 69.5659 36.7414C69.6497 36.775 69.7395 36.7912 69.8297 36.7889H73.7768V18.3467H69.8297C69.6498 18.3513 69.4785 18.4253 69.3514 18.5535C69.2242 18.6817 69.1509 18.8542 69.1467 19.0352V19.0364ZM69.1467 30.8565C68.695 31.4834 68.1013 31.9929 67.4149 32.3427C66.7284 32.6926 65.969 32.8726 65.1996 32.8681C64.4874 32.9022 63.7757 32.7906 63.1076 32.5398C62.4395 32.2891 61.829 31.9044 61.3129 31.4092C60.7968 30.914 60.386 30.3186 60.1053 29.6589C59.8246 28.9992 59.6799 28.289 59.6799 27.5714C59.6799 26.8537 59.8246 26.1436 60.1053 25.4839C60.386 24.8242 60.7968 24.2287 61.3129 23.7335C61.829 23.2383 62.4395 22.8537 63.1076 22.6029C63.7757 22.3521 64.4874 22.2405 65.1996 22.2747C65.9671 22.2808 66.7228 22.4655 67.4076 22.8145C68.0923 23.1635 68.6876 23.6672 69.1467 24.2862V30.8565ZM76.7012 18.3491H81.3791V36.7912H76.7012V18.3479V18.3491ZM146.586 17.8579C145.704 17.8205 144.824 17.9767 144.007 18.3158C143.191 18.6548 142.457 19.1685 141.858 19.8213V9.46866H137.18V36.7889H141.127C141.307 36.7852 141.479 36.7115 141.606 36.5833C141.733 36.4552 141.806 36.2825 141.809 36.1015V35.2685C142.402 35.9327 143.132 36.4574 143.949 36.8051C144.766 37.1528 145.649 37.3149 146.536 37.28C149.058 37.2305 151.461 36.1888 153.23 34.3782C154.999 32.5675 155.993 30.1318 156 27.5925C156.007 25.0532 155.025 22.6123 153.265 20.7924C151.506 18.9725 149.108 17.9183 146.586 17.8555V17.8579ZM145.806 32.8187C145.036 32.8291 144.274 32.6516 143.587 32.3012C142.9 31.9509 142.307 31.4383 141.859 30.8072V24.2344C142.334 23.6322 142.932 23.1406 143.614 22.7933C144.295 22.4461 145.043 22.2515 145.806 22.2229C147.202 22.2229 148.541 22.7809 149.528 23.7743C150.515 24.7676 151.069 26.1148 151.069 27.5196C151.069 28.9244 150.515 30.2716 149.528 31.2649C148.541 32.2583 147.202 32.8163 145.806 32.8163V32.8187ZM134.744 25.8548V36.8418H130.065V26.394C130.065 23.3533 129.09 22.1266 126.46 22.1266C125.735 22.1481 125.024 22.3205 124.369 22.633C123.715 22.9455 123.132 23.3912 122.657 23.9419V36.7925H117.981V18.3491H121.688C121.868 18.3528 122.04 18.4264 122.167 18.5545C122.295 18.6826 122.368 18.8553 122.371 19.0364V19.8213C123.022 19.1693 123.799 18.6587 124.654 18.3209C125.509 17.9832 126.423 17.8256 127.341 17.8579C129.205 17.7937 131.027 18.4224 132.459 19.6239C134.116 20.9974 134.75 22.7622 134.75 25.8535L134.744 25.8548ZM106.622 17.8591C105.74 17.8218 104.86 17.9781 104.044 18.3171C103.228 18.6562 102.495 19.1698 101.896 19.8225V9.46987H97.2176V36.7901H101.165C101.345 36.7864 101.516 36.7127 101.644 36.5846C101.771 36.4565 101.844 36.2838 101.848 36.1027V35.2697C102.44 35.934 103.171 36.4586 103.988 36.8063C104.805 37.1539 105.688 37.3161 106.575 37.2812C109.097 37.2315 111.5 36.1897 113.269 34.3789C115.038 32.5682 116.032 30.1324 116.038 27.5931C116.044 25.0538 115.063 22.613 113.303 20.7932C111.544 18.9734 109.146 17.9194 106.624 17.8567L106.622 17.8591ZM105.843 32.8199C105.072 32.8304 104.311 32.6529 103.623 32.3026C102.936 31.9523 102.343 31.4396 101.896 30.8084V24.2356C102.37 23.6334 102.969 23.1418 103.65 22.7946C104.331 22.4473 105.079 22.2527 105.843 22.2241C106.555 22.1899 107.267 22.3016 107.935 22.5524C108.603 22.8031 109.213 23.1878 109.729 23.683C110.245 24.1782 110.656 24.7737 110.937 25.4333C111.218 26.093 111.362 26.8032 111.362 27.5208C111.362 28.2384 111.218 28.9486 110.937 29.6083C110.656 30.268 110.245 30.8635 109.729 31.3587C109.213 31.8539 108.603 32.2385 107.935 32.4893C107.267 32.74 106.555 32.8517 105.843 32.8175V32.8199ZM93.1725 17.8591C93.8952 17.8341 94.6176 17.9152 95.3171 18.0999V22.4648C95.3171 22.4648 91.4178 21.1407 88.9778 23.9371V36.837H84.2987V18.3479H88.2458C88.4257 18.3516 88.5971 18.4252 88.7242 18.5533C88.8514 18.6815 88.9242 18.8542 88.9276 19.0352V19.8201C90.0467 18.6516 91.5625 17.9508 93.1725 17.8579V17.8591ZM44.5851 35.1252C44.3459 34.5365 44.0983 33.8997 43.8543 33.3592C43.4643 32.4769 43.0744 31.6426 42.7335 30.8577L42.6845 30.8084C39.3211 23.4508 35.7161 16.0017 31.9197 8.63925L31.7738 8.34432C31.3751 7.58111 30.9856 6.81268 30.6052 6.03904C30.1246 5.07531 29.5359 4.17017 28.8506 3.34133C28.1148 2.39481 27.1748 1.62914 26.1015 1.10232C25.0283 0.575499 23.8501 0.301321 22.656 0.300537C21.4662 0.304959 20.2916 0.570608 19.2143 1.07896C18.137 1.58731 17.1829 2.32612 16.4185 3.24383C15.7491 4.08444 15.1615 4.98782 14.6638 5.94154C14.2834 6.71438 13.8939 7.48281 13.4952 8.24682L13.3481 8.54175C9.59597 15.8982 5.94073 23.3484 2.58331 30.7109L2.53429 30.8084C2.19341 31.5944 1.80347 32.4275 1.41355 33.3099C1.17034 33.85 0.926749 34.4386 0.682747 35.0758C0.0595572 36.7665 -0.14131 38.5854 0.0978448 40.3725C0.359065 42.1676 1.08127 43.863 2.19308 45.2911C3.30488 46.7191 4.76779 47.8304 6.43712 48.515C7.68642 49.043 9.02926 49.3101 10.3842 49.2999C10.8083 49.2917 11.2317 49.2587 11.652 49.2012C13.3717 48.9814 15.0295 48.4143 16.5261 47.5339C18.7955 46.1699 20.8325 44.4478 22.5592 42.4335C24.2996 44.4374 26.338 46.158 28.6018 47.5339C30.098 48.4141 31.7554 48.9812 33.4746 49.2012C33.895 49.2589 34.3183 49.2919 34.7425 49.2999C36.0979 49.315 37.4417 49.0478 38.6896 48.515C40.3599 47.832 41.8237 46.7211 42.9357 45.2928C44.0478 43.8644 44.7693 42.1682 45.0288 40.3725C45.3875 38.6172 45.2342 36.7949 44.5875 35.1252H44.5851ZM22.607 37.6761C20.3297 35.0296 18.6504 31.9171 17.6851 28.5537C17.4475 27.5746 17.3979 26.5588 17.5392 25.561C17.6349 24.822 17.902 24.116 18.319 23.5001C18.8079 22.8188 19.4534 22.2666 20.2003 21.8908C20.9471 21.5149 21.7733 21.3266 22.6082 21.3417C23.4457 21.3101 24.2776 21.4913 25.0272 21.8685C25.7768 22.2457 26.42 22.8069 26.8974 23.5001C27.3136 24.1164 27.5807 24.8222 27.6772 25.561C27.8188 26.5588 27.7693 27.5746 27.5313 28.5537C26.5425 31.9072 24.8649 35.0143 22.607 37.6736V37.6761ZM42.0506 39.9813C41.8753 41.2449 41.3735 42.44 40.5954 43.4473C39.8174 44.4545 38.7902 45.2385 37.6167 45.721C36.443 46.202 35.1661 46.3708 33.9088 46.211C32.5989 46.0472 31.3366 45.6132 30.2009 44.9362C28.1069 43.6608 26.2309 42.054 24.6451 40.1775C27.3969 37.0596 29.4127 33.3559 30.5418 29.3434C30.8577 27.9774 30.9387 26.5669 30.7811 25.1734C30.6008 23.9751 30.1507 22.8341 29.4654 21.8377C28.6896 20.7366 27.6577 19.8435 26.4599 19.2364C25.262 18.6294 23.9347 18.3267 22.5938 18.3551C21.2548 18.3375 19.9312 18.6449 18.7351 19.2511C17.539 19.8573 16.5056 20.7445 15.7223 21.8377C15.0372 22.8343 14.5872 23.9752 14.4066 25.1734C14.1994 26.5651 14.2809 27.9849 14.6459 29.3434C15.3767 32.5804 17.3741 36.2592 20.5426 40.2317C18.9682 42.1195 17.0901 43.7281 14.9867 44.9903C13.8514 45.6681 12.589 46.1022 11.2789 46.2652C10.0217 46.407 8.74918 46.2388 7.57101 45.7752C6.40092 45.2884 5.37806 44.5013 4.60448 43.4925C3.83091 42.4837 3.33363 41.2884 3.16223 40.0259C3.00137 38.7337 3.15194 37.4215 3.6012 36.2002C3.74712 35.709 3.99112 35.2191 4.23512 34.6353C4.57601 33.8504 4.96591 33.0162 5.35583 32.1819L5.40489 32.0844C8.76709 24.7762 12.3733 17.321 16.1254 10.0621L16.2713 9.76722C16.6612 9.0317 17.0512 8.24679 17.4411 7.51127C17.8092 6.73977 18.2673 6.01519 18.8059 5.35287C19.2862 4.78413 19.8837 4.32729 20.5568 4.01399C21.23 3.70069 21.9628 3.53843 22.7045 3.53843C23.4462 3.53843 24.179 3.70069 24.8521 4.01399C25.5253 4.32729 26.1228 4.78413 26.6031 5.35287C27.141 6.01568 27.5991 6.74017 27.9678 7.51127C28.3578 8.24679 28.7477 9.0317 29.1376 9.76722L29.2847 10.0621C32.9799 17.3507 36.5374 24.7079 39.9574 32.1338V32.1831C40.3473 32.9692 40.6882 33.8516 41.0782 34.6365C41.3174 35.2239 41.565 35.7199 41.7121 36.2014C42.1137 37.4168 42.23 38.7094 42.0518 39.9777L42.0506 39.9813Z" fill="#8989A2"/>
</svg>
