<svg width="78" height="70" viewBox="0 0 78 70" fill="none" xmlns="http://www.w3.org/2000/svg">
<path d="M64.2064 22.3779C63.3803 22.095 62.5477 21.8328 61.7085 21.5914C61.848 21.0262 61.9768 20.4582 62.0951 19.8874C63.9862 10.7129 62.7495 3.3133 58.528 0.878998C54.4802 -1.45622 47.8599 0.978082 41.1735 6.79717C40.5146 7.36803 39.8707 7.95887 39.242 8.56969C38.8203 8.16193 38.3918 7.766 37.9563 7.38189C30.9482 1.15913 23.9242 -1.46234 19.7064 0.979306C15.6622 3.32064 14.4647 10.2761 16.1662 18.9711C16.3359 19.8323 16.5271 20.6886 16.7399 21.54C15.7466 21.8226 14.7827 22.1235 13.8677 22.4428C5.65224 25.3064 0.40564 29.7958 0.40564 34.4528C0.40564 39.2627 6.03267 44.0861 14.5956 47.0109C15.2896 47.2466 15.9889 47.4651 16.6935 47.6666C16.4643 48.584 16.2604 49.5076 16.0818 50.4373C14.4585 58.9855 15.7259 65.7722 19.7602 68.0988C23.9266 70.5013 30.9188 68.0315 37.7276 62.0803C38.2658 61.6098 38.8057 61.1123 39.3472 60.5879C40.0281 61.2453 40.7274 61.8834 41.4451 62.5024C48.0397 68.1771 54.5536 70.4695 58.5843 68.1367C62.7434 65.7269 64.0988 58.4362 62.3422 49.5651C62.2084 48.8874 62.0535 48.1942 61.8773 47.4855C62.3666 47.3404 62.8478 47.1903 63.3208 47.0354C72.2164 44.0885 78 39.3288 78 34.4492C78 29.7763 72.5846 25.2563 64.2028 22.3718L64.2064 22.3779Z" fill="#8989A2"/>
<path d="M62.2761 43.8939C61.8517 44.0346 61.4198 44.1704 60.9734 44.3013C59.8884 40.9392 58.5756 37.6548 57.0442 34.4711C58.5177 31.3291 59.7793 28.0921 60.8204 24.7816C61.6143 25.0116 62.385 25.2538 63.1275 25.5156C70.3081 27.9878 74.6886 31.6429 74.6886 34.4589C74.6886 37.4583 69.9583 41.3532 62.2774 43.8988L62.2761 43.8939ZM59.0895 50.2097C59.8392 53.572 59.9636 57.0436 59.4565 60.4509C58.9941 62.9427 58.0644 64.6027 56.9158 65.2681C54.4692 66.6834 49.2398 64.8436 43.6005 59.9909C42.9538 59.4348 42.3014 58.8419 41.6433 58.2123C43.9948 55.6087 46.1678 52.8493 48.1474 49.9528C51.6838 49.6546 55.1955 49.1134 58.6577 48.3332C58.8159 48.9717 58.9558 49.5976 59.0773 50.2109L59.0895 50.2097ZM26.8588 65.0271C24.4698 65.8712 22.5664 65.8944 21.4165 65.2314C18.97 63.8198 17.951 58.3701 19.337 51.0598C19.5001 50.1962 19.6889 49.3375 19.9033 48.4836C23.351 49.2244 26.8449 49.7304 30.3611 49.9981C32.3987 52.8843 34.6237 55.6336 37.0218 58.2282C36.5398 58.6939 36.0468 59.1477 35.5428 59.5897C33.0059 61.92 30.0618 63.7636 26.8576 65.0283L26.8588 65.0271ZM15.6659 43.8793C12.3792 42.8457 9.31069 41.216 6.61376 39.0718C4.69078 37.4192 3.7244 35.7824 3.7244 34.454C3.7244 31.6282 7.93733 28.0245 14.9638 25.5743C15.8454 25.2685 16.7355 24.9883 17.6342 24.7339C18.6775 28.0806 19.941 31.3547 21.4165 34.5347C19.9228 37.7602 18.6437 41.0809 17.5877 44.475C16.9402 44.2907 16.2996 44.0909 15.6659 43.8756V43.8793ZM19.4177 18.335C17.9596 10.8816 18.9284 5.25946 21.3651 3.84903C23.9609 2.34563 29.7017 4.4888 35.752 9.86139C36.1386 10.2051 36.5276 10.5648 36.9166 10.9366C34.5365 13.5144 32.3297 16.2471 30.3109 19.1166C26.8281 19.4292 23.3692 19.9669 19.9559 20.7265C19.7578 19.9338 19.58 19.1366 19.4226 18.335H19.4177ZM52.89 26.6006C52.1316 25.2901 51.345 23.9967 50.5303 22.7204C53.0062 23.0323 55.3781 23.4544 57.6057 23.9571C56.8908 26.2246 56.062 28.4546 55.1225 30.6386C54.4056 29.2775 53.6615 27.9319 52.89 26.6018V26.6006ZM39.2408 13.3049C40.8548 15.0646 42.3789 16.9047 43.8072 18.8182C40.7515 18.6738 37.6933 18.6738 34.6327 18.8182C36.1398 16.8304 37.6848 14.9832 39.2383 13.3135L39.2408 13.3049ZM25.4986 26.6226C24.7377 27.9429 24.0074 29.2804 23.3077 30.6349C22.3462 28.3462 21.5205 26.0954 20.8502 23.9253C23.0643 23.4299 25.4252 23.025 27.8852 22.7179C27.0615 24.0024 26.2684 25.3072 25.5059 26.6324L25.4986 26.6226ZM27.9451 46.4322C25.5433 46.1716 23.1564 45.7878 20.7939 45.2824C21.4789 43.0695 22.323 40.7709 23.3089 38.4321C24.0111 39.7874 24.745 41.1257 25.5108 42.4468C26.2913 43.794 27.1035 45.1225 27.9476 46.4322H27.9451ZM39.3215 55.8379C37.7508 54.1425 36.1838 52.2672 34.6523 50.25C36.1382 50.3088 37.6513 50.3381 39.1918 50.3381C40.7739 50.3381 42.3352 50.3035 43.8757 50.2341C42.458 52.1788 40.9416 54.0496 39.3325 55.8392L39.3215 55.8379ZM55.1543 38.3134C56.1403 40.542 57.01 42.8204 57.7598 45.1392C55.3699 45.6764 52.9535 46.0884 50.5205 46.3735C51.3409 45.0736 52.1352 43.7573 52.9034 42.4248C53.6839 41.071 54.4342 39.7006 55.1543 38.3134ZM50.0324 40.7685C48.8573 42.8073 47.6165 44.8094 46.31 46.7747C44.0079 46.9387 41.6286 47.0194 39.2041 47.0194C36.7796 47.0194 34.4407 46.9448 32.1788 46.798C30.839 44.8408 29.5749 42.8354 28.3867 40.7819C27.2042 38.7432 26.1008 36.6591 25.0765 34.5298C26.0976 32.4038 27.1985 30.3185 28.3794 28.274C29.557 26.2304 30.8112 24.2323 32.1421 22.28C34.4505 22.1051 36.8163 22.0146 39.2077 22.0146C41.5992 22.0146 43.9785 22.1063 46.2868 22.2825C47.603 24.2275 48.8491 26.2173 50.0251 28.252C51.2011 30.2867 52.3163 32.3622 53.3707 34.4784C52.3342 36.611 51.2227 38.7048 50.0361 40.7599L50.0324 40.7685ZM56.8705 3.74994C59.4687 5.24845 60.4792 11.2914 58.8473 19.217C58.7405 19.7332 58.6243 20.2473 58.4987 20.7595C55.0801 19.9847 51.6139 19.4371 48.1229 19.1203C46.123 16.2473 43.9316 13.5124 41.5638 10.9342C42.1452 10.3739 42.7401 9.82836 43.3485 9.29747C49.0771 4.31142 54.4313 2.34319 56.8717 3.74994H56.8705Z" fill="white"/>
<path d="M39.204 27.5254C40.5746 27.5254 41.9144 27.9318 43.0541 28.6933C44.1937 29.4547 45.0819 30.537 45.6064 31.8033C46.1309 33.0695 46.2681 34.4629 46.0007 35.8071C45.7333 37.1514 45.0733 38.3862 44.1042 39.3553C43.135 40.3245 41.9002 40.9845 40.556 41.2519C39.2117 41.5193 37.8184 41.382 36.5521 40.8575C35.2859 40.333 34.2036 39.4448 33.4421 38.3052C32.6807 37.1656 32.2742 35.8258 32.2742 34.4552C32.2742 32.6173 33.0043 30.8547 34.3039 29.5551C35.6035 28.2555 37.3661 27.5254 39.204 27.5254" fill="#8989A2"/>
</svg>
