<svg width="150" height="43" viewBox="0 0 150 43" fill="none" xmlns="http://www.w3.org/2000/svg">
<g clip-path="url(#clip0_30_29)">
<path d="M7.13604 29.7192H20.374C24.0295 29.7192 26.9929 32.6384 26.9929 36.2393C26.9929 39.8402 24.0295 42.7593 20.374 42.7593H7.13604C3.4805 42.7593 0.51709 39.8402 0.51709 36.2393C0.51709 32.6384 3.4805 29.7192 7.13604 29.7192Z" fill="#1AD1A5"/>
<path d="M13.755 26.5894C21.0661 26.5894 26.9929 20.7512 26.9929 13.5494C26.9929 6.34752 21.0661 0.509277 13.755 0.509277C6.4439 0.509277 0.51709 6.34752 0.51709 13.5494C0.51709 20.7512 6.4439 26.5894 13.755 26.5894Z" fill="white"/>
<path d="M13.755 0C21.3517 0 27.51 6.0663 27.51 13.5495C27.51 21.0326 21.3517 27.0989 13.755 27.0989C6.15833 27.0989 0 21.0326 0 13.5495C0 6.0663 6.15833 0 13.755 0ZM13.755 0.509378C6.44392 0.509378 0.517106 6.34762 0.517106 13.5495C0.517106 20.7513 6.44392 26.5895 13.755 26.5895C21.0661 26.5895 26.9929 20.7513 26.9929 13.5495C26.9929 6.34762 21.0661 0.509378 13.755 0.509378Z" fill="black" fill-opacity="0.2"/>
<path d="M13.755 19.3914C17.0304 19.3914 19.6856 16.7759 19.6856 13.5495C19.6856 10.3231 17.0304 7.70752 13.755 7.70752C10.4797 7.70752 7.82446 10.3231 7.82446 13.5495C7.82446 16.7759 10.4797 19.3914 13.755 19.3914Z" fill="#FF9903"/>
<path d="M131.471 32.6981C129.547 32.6981 127.893 32.3518 126.507 31.659C125.121 30.9663 124.056 29.9781 123.311 28.6944C122.587 27.3904 122.225 25.8419 122.225 24.0489H127.965C127.965 24.762 128.11 25.3733 128.399 25.8827C128.689 26.392 129.092 26.7792 129.609 27.044C130.147 27.3089 130.788 27.4414 131.533 27.4414C132.278 27.4414 132.919 27.3089 133.457 27.044C133.995 26.7792 134.398 26.392 134.667 25.8827C134.956 25.3733 135.101 24.762 135.101 24.0489H140.841C140.841 25.8419 140.469 27.3904 139.724 28.6944C138.979 29.9781 137.904 30.9663 136.497 31.659C135.111 32.3518 133.436 32.6981 131.471 32.6981ZM122.225 24.0489V10.9375H127.965V24.0489H122.225ZM135.101 24.0489V10.9375H140.841V24.0489H135.101ZM144.26 32.3314V10.9375H150V32.3314H144.26Z" fill="#1AD1A5"/>
<path d="M53.5101 32.3314L53.2309 29.489V10.9375H58.8156V32.3314H53.5101ZM49.1044 32.6981C47.6358 32.6981 46.374 32.3823 45.3191 31.7507C44.2849 31.119 43.4886 30.2022 42.9301 29C42.3716 27.7979 42.0924 26.3614 42.0924 24.6907C42.0924 23.0202 42.3649 21.5982 42.9098 20.4247L42.9301 20.3813C43.4886 19.1792 44.2849 18.2623 45.3191 17.6307C46.374 16.9991 47.6358 16.6833 49.1044 16.6833C50.3868 16.6833 51.4417 16.9991 52.2691 17.6307C53.1171 18.2623 53.7376 19.1792 54.1306 20.3813C54.5443 21.5631 54.7512 22.9995 54.7512 24.6907C54.7512 26.3614 54.5443 27.7979 54.1306 29C53.7426 30.1869 53.1328 31.0958 52.3011 31.7265L52.2691 31.7507C51.4417 32.3823 50.3868 32.6981 49.1044 32.6981ZM50.5936 27.6247C51.1107 27.6247 51.5658 27.5024 51.9588 27.2579C52.3725 26.9931 52.6931 26.6467 52.9206 26.2188C53.1481 25.7706 53.2619 25.2612 53.2619 24.6907C53.2619 24.1202 53.1481 23.621 52.9206 23.1931C52.6931 22.7449 52.3725 22.3985 51.9588 22.154C51.5658 21.9095 51.1004 21.7872 50.5626 21.7872C50.0662 21.7872 49.6215 21.9095 49.2285 22.154C48.8355 22.3985 48.5252 22.7449 48.2977 23.1931C48.0702 23.621 47.946 24.1202 47.9254 24.6907C47.946 25.2612 48.0702 25.7706 48.2977 26.2188C48.5252 26.6467 48.8355 26.9931 49.2285 27.2579C49.6422 27.5024 50.0972 27.6247 50.5936 27.6247ZM70.6527 32.3314L70.4975 28.8166V24.8435C70.4975 24.1304 70.4562 23.4885 70.3734 22.918C70.2907 22.3475 70.0839 21.8993 69.7529 21.5733C69.422 21.2473 68.8842 21.0843 68.1395 21.0843C67.6224 21.0843 67.1984 21.2065 66.8675 21.451C66.5365 21.6955 66.2573 21.9808 66.0298 22.3068L61.1586 20.7787C61.593 19.9433 62.1308 19.22 62.772 18.6087C63.4339 17.9975 64.1992 17.5288 65.0679 17.2028C65.9574 16.8564 66.9399 16.6833 68.0154 16.6833C69.6702 16.6833 71.0871 16.9787 72.2661 17.5696C73.4451 18.1605 74.3448 18.9856 74.9653 20.0452C75.5859 21.1047 75.8961 22.3374 75.8961 23.7432V32.3314H70.6527ZM66.5262 32.6981C64.7266 32.6981 63.3201 32.3008 62.3066 31.5062C61.3137 30.6912 60.8173 29.5298 60.8173 28.022C60.8173 26.4328 61.3137 25.2612 62.3066 24.5073C63.3201 23.733 64.7266 23.3459 66.5262 23.3459H71.0871V26.4939H68.729C68.0051 26.4939 67.4466 26.6161 67.0536 26.8606C66.6606 27.1051 66.4641 27.4515 66.4641 27.8998C66.4641 28.2054 66.5986 28.4397 66.8675 28.6027C67.1364 28.7657 67.5087 28.8472 67.9844 28.8472C68.5015 28.8472 68.9462 28.7555 69.3185 28.5721C69.6909 28.3684 69.9804 28.0933 70.1873 27.7469C70.3941 27.3802 70.4975 26.9625 70.4975 26.4939H71.9558C71.9558 28.4703 71.48 29.9984 70.5286 31.0783C69.5771 32.1582 68.243 32.6981 66.5262 32.6981ZM78.8405 32.3314V17.05H84.4253V32.3314H78.8405ZM81.6329 15.583C80.8055 15.583 80.0816 15.2774 79.4611 14.6661C78.8405 14.0549 78.5303 13.3417 78.5303 12.5267C78.5303 11.6913 78.8405 10.9782 79.4611 10.3873C80.0816 9.77609 80.8055 9.47046 81.6329 9.47046C82.481 9.47046 83.2049 9.77609 83.8047 10.3873C84.4253 10.9782 84.7355 11.6913 84.7355 12.5267C84.7355 13.3417 84.4253 14.0549 83.8047 14.6661C83.2049 15.2774 82.481 15.583 81.6329 15.583ZM93.3929 32.6981C92.3587 32.6981 91.3969 32.5555 90.5075 32.2702C89.6181 31.985 88.8527 31.5877 88.2115 31.0783C87.591 30.5485 87.1566 29.9169 86.9084 29.1834L91.3452 27.4719C91.5727 28.022 91.8933 28.3786 92.307 28.5416C92.7207 28.6842 93.0827 28.7555 93.3929 28.7555C93.7239 28.7555 93.9928 28.6842 94.1996 28.5416C94.4065 28.399 94.5099 28.1952 94.5099 27.9303C94.5099 27.6451 94.3651 27.4108 94.0755 27.2274C93.7922 27.0281 93.3605 26.858 92.7803 26.7172L91.4693 26.4022C90.0835 26.0558 89.0389 25.4547 88.3356 24.599C87.6324 23.7432 87.2807 22.7449 87.2807 21.6038C87.2807 20.035 87.8599 18.8226 89.0182 17.9669C90.1972 17.1111 91.7899 16.6833 93.7963 16.6833C95.0166 16.6833 96.0405 16.8361 96.8679 17.1417C97.7159 17.4269 98.4089 17.8344 98.9466 18.3642C99.4844 18.894 99.8981 19.5052 100.188 20.198L95.875 21.8178C95.7302 21.4103 95.482 21.1148 95.1304 20.9315C94.7995 20.7481 94.3858 20.6564 93.8894 20.6564C93.5377 20.6564 93.2585 20.7379 93.0516 20.9009C92.8655 21.0639 92.7724 21.2575 92.7724 21.4816C92.7724 21.7261 92.9172 21.94 93.2068 22.1234L93.2481 22.1447C93.5578 22.3006 94.0094 22.4565 94.603 22.6124L95.875 22.918C96.8265 23.1422 97.6539 23.4885 98.3571 23.9572C99.0604 24.4054 99.6085 24.9657 100.002 25.6381C100.395 26.3105 100.591 27.0848 100.591 27.9609C100.591 28.9593 100.291 29.815 99.6913 30.5282C99.0914 31.2209 98.2537 31.7608 97.1781 32.148C96.1026 32.5147 94.8408 32.6981 93.3929 32.6981ZM107.455 38.8106C106.731 38.8106 105.965 38.668 105.159 38.3828C104.352 38.1179 103.711 37.8326 103.235 37.527L105.314 33.0954C105.541 33.2788 105.779 33.4214 106.027 33.5233C106.296 33.6455 106.544 33.7067 106.772 33.7067C107.103 33.7067 107.413 33.6252 107.703 33.4622C108.006 33.3031 108.24 33.0371 108.404 32.6644L110.278 28.3582L114.467 17.05H120.672L114.001 32.8815C113.525 34.0225 113.029 35.0412 112.512 35.9378C112.004 36.8191 111.365 37.5133 110.597 38.0205L110.557 38.0466C109.792 38.556 108.758 38.8106 107.455 38.8106ZM108.82 32.3314L101.373 17.05H107.579L112.202 28.3582L114.094 32.3314H108.82Z" fill="black"/>
</g>
<defs>
<clipPath id="clip0_30_29">
<rect width="150" height="43" fill="white"/>
</clipPath>
</defs>
</svg>
