<svg width="150" height="54" viewBox="0 0 150 54" fill="none" xmlns="http://www.w3.org/2000/svg">
<g clip-path="url(#clip0_30_15)">
<path d="M113.592 27.3898V39.2704H118.556V28.1182C118.556 23.1513 125.453 23.1432 125.453 23.1432V18.3096L124.949 18.34C124.275 18.3878 123.043 18.4998 122.001 18.7298L121.386 18.8739C117.301 19.8893 113.592 22.0392 113.592 27.3898ZM76.1722 18.0694C78.106 18.0694 80.5223 19.1419 81.8377 21.0286C83.1998 19.3128 85.4397 18.1548 88.2074 18.1108C91.7231 18.0667 96.0704 20.212 96.0704 26.6466V39.2556H91.1051V26.6466C91.1051 24.5014 89.5229 22.9591 87.1544 22.9591C84.7859 22.9591 83.2024 24.5014 83.2024 26.6466V39.2556H78.2385V26.6466C78.2385 24.5014 76.6577 22.9591 74.2866 22.9591C71.9154 22.9591 70.2895 24.5014 70.2895 26.6466V39.2556H65.0685V18.7085H70.2895V20.7724C71.6184 19.1935 73.5316 18.1859 75.7756 18.0788L76.1722 18.0694ZM107.486 18.97V39.2706H102.437V18.97H107.486ZM104.961 15.7401C106.517 15.7401 107.779 14.509 107.779 12.9904C107.779 11.4718 106.517 10.2407 104.961 10.2407C103.404 10.2407 102.142 11.4718 102.142 12.9904C102.142 14.509 103.404 15.7401 104.961 15.7401ZM138.933 18.0254C132.821 18.0254 127.866 22.859 127.866 28.8226C127.866 34.7863 132.821 39.6199 138.933 39.6199C145.046 39.6199 150 34.7863 150 28.8226C150 22.859 145.046 18.0254 138.933 18.0254ZM138.933 34.765C135.473 34.765 132.667 32.0287 132.667 28.6519C132.667 25.2751 135.472 22.5389 138.933 22.5389C142.394 22.5389 145.199 25.2751 145.199 28.6519C145.199 32.0287 142.394 34.765 138.933 34.765Z" fill="black"/>
<path d="M0 13.4305C0 6.01303 6.13308 0 13.6986 0H41.0959C48.6615 0 54.7945 6.01303 54.7945 13.4305V40.2915C54.7945 47.7089 48.6615 53.7219 41.0959 53.7219H13.6986C6.13308 53.7219 0 47.7089 0 40.2915V13.4305Z" fill="#FFDD33"/>
<path d="M36.4288 10.2407H31.4546L35.5997 17.381L26.4805 10.2407H21.5065L26.0661 18.968L16.5323 10.2407H11.5582L16.5323 21.3496L11.5582 43.5651H16.5323L26.0661 19.7626L21.5065 43.5651H26.4805L35.5997 18.1756L31.4546 43.5651H36.4288L45.548 15.7941L36.4288 10.2407Z" fill="black"/>
</g>
<defs>
<clipPath id="clip0_30_15">
<rect width="150" height="54" fill="white"/>
</clipPath>
</defs>
</svg>
