<svg width="150" height="34" viewBox="0 0 150 34" fill="none" xmlns="http://www.w3.org/2000/svg">
<g clip-path="url(#clip0_30_39)">
<path d="M25.8353 23.9103L25.2634 23.3292L25.1571 23.2295C22.8793 20.9756 19.8278 19.7151 16.6513 19.716C13.4751 19.7154 10.424 20.9759 8.14646 23.2295L8.07249 23.3037L7.50891 23.8849L6.29944 25.1129C5.60867 25.8241 4.66709 26.2243 3.68466 26.2244C2.70799 26.2246 1.77107 25.8306 1.07925 25.1288C0.388512 24.4278 0 23.4758 0 22.4829C0 21.49 0.388512 20.5379 1.07925 19.8369L3.68466 17.1909L1.11154 14.5853C0.401621 13.8817 0.000813891 12.9161 0 11.9075C0 10.9148 0.388571 9.96356 1.07925 9.2615C2.5195 7.7989 4.85086 7.7989 6.29111 9.2615L8.17875 11.1778C10.4576 13.4297 13.5087 14.6889 16.6846 14.6881C19.8619 14.6881 22.9143 13.4282 25.1894 11.1778C25.2125 11.1458 25.2403 11.1176 25.2717 11.0941L26.3416 9.99961L27.0531 9.28589C27.7404 8.58183 28.6762 8.18761 29.6512 8.19144C30.6284 8.19144 31.5649 8.58489 32.2556 9.28695C33.3139 10.3588 33.629 11.9765 33.0525 13.3784C32.8629 13.8355 32.5837 14.2491 32.2327 14.5948L29.6512 17.2164L32.2327 19.838C32.94 20.5396 33.338 21.503 33.3359 22.5083C33.3359 23.4999 32.9473 24.4512 32.2566 25.1532C30.8192 26.6149 28.4905 26.6149 27.0531 25.1532L25.827 23.9103H25.8353Z" fill="url(#paint0_linear_30_39)"/>
<path d="M23.2726 0.283176C23.7206 0.470887 24.1269 0.746619 24.4686 1.09447C25.156 1.79629 25.5413 2.7474 25.5397 3.73848C25.5382 4.72957 25.1498 5.67941 24.4602 6.37899L21.8559 9.02496L21.7902 9.08329C18.9308 11.9207 14.3708 11.9207 11.5113 9.08329L11.4457 9.02496L8.83925 6.37899C7.41535 4.91643 7.42234 2.55674 8.85487 1.10295C10.2891 -0.356084 12.6123 -0.359877 14.0511 1.09447L16.6576 3.7415L19.2557 1.09447C19.9477 0.392402 20.8852 -0.00124954 21.8621 9.9933e-06C22.3464 -0.00112895 22.8261 0.0950977 23.2737 0.283176H23.2726Z" fill="url(#paint1_linear_30_39)"/>
<path d="M10.0425 33.6531C9.59517 33.4656 9.18873 33.1899 8.84655 32.8418C8.15915 32.14 7.77384 31.1889 7.7754 30.1978C7.77696 29.2067 8.16528 28.2568 8.85489 27.5573L11.4613 24.9113L11.527 24.853C14.3865 22.0168 18.9453 22.0168 21.8048 24.853L21.8705 24.9113L24.4769 27.5573C25.9005 29.0201 25.8931 31.3798 24.4602 32.8333C23.026 34.2923 20.7029 34.2961 19.264 32.8418L16.6576 30.1948L14.0595 32.8407C13.3676 33.5432 12.4301 33.9372 11.453 33.9362C10.9691 33.9372 10.4898 33.841 10.0425 33.6531Z" fill="url(#paint2_linear_30_39)"/>
<path d="M53.7958 22.1669H44.0211L42.5668 25.5393C42.4523 25.8246 42.2563 26.0685 42.0042 26.2392C41.7487 26.4134 41.4491 26.5084 41.1417 26.5128C40.8833 26.5128 40.6291 26.4492 40.402 26.3294C40.1759 26.2098 39.9826 26.0349 39.8395 25.8203C39.5544 25.3907 39.5079 24.8414 39.7166 24.3685L46.6431 8.93381C46.8421 8.48521 47.1713 8.10343 47.587 7.83512C48.4437 7.2838 49.5356 7.2838 50.3924 7.83512C50.8091 8.10343 51.1403 8.48521 51.3424 8.93381L58.1596 24.3207C58.378 24.803 58.3321 25.3664 58.0388 25.8055C57.8928 26.0254 57.6951 26.2048 57.4637 26.3272C56.9421 26.603 56.3149 26.571 55.823 26.2434C55.5644 26.0725 55.3617 25.827 55.2407 25.5382L53.7968 22.1669H53.7958ZM52.5102 19.243L48.8589 10.7664L45.1982 19.243H52.5102ZM77.2382 13.9331C77.2382 18.2398 74.4328 20.7543 69.5543 20.7543H65.0831V24.9051C65.0831 25.3314 64.9101 25.7408 64.6039 26.042C64.2927 26.3451 63.8783 26.5139 63.4475 26.5128C63.0131 26.5128 62.5975 26.3431 62.2902 26.042C61.9853 25.745 61.8123 25.3346 61.811 24.9051V9.03138C61.811 8.60505 61.9828 8.19569 62.2902 7.89451C62.6013 7.59125 63.0157 7.42249 63.4465 7.42361H69.5543C74.4025 7.41304 77.2382 9.78222 77.2382 13.9331ZM74.1056 14.0105C74.1056 11.5066 72.4097 10.3082 69.4157 10.3082H65.082V17.8591H69.4449C72.4201 17.8591 74.1056 16.6024 74.1056 14.0105ZM83.6835 9.03138V24.9051C83.6835 25.3314 83.5116 25.7408 83.2043 26.042C82.8913 26.3457 82.4751 26.5145 82.0427 26.5128C81.6073 26.5128 81.1906 26.3431 80.8822 26.042C80.5767 25.7454 80.4033 25.3348 80.402 24.9051V9.03138C80.402 8.60505 80.5749 8.19569 80.8822 7.89451C81.1949 7.59099 81.6107 7.42228 82.0427 7.42363C82.4782 7.42363 82.8959 7.59332 83.2032 7.89451C83.5116 8.19569 83.6845 8.60505 83.6845 9.03138H83.6835ZM106.655 16.9735C106.655 22.4786 102.426 26.5128 96.5667 26.5128H90.3413C89.9089 26.5128 89.4943 26.3431 89.1891 26.042C88.8848 25.7447 88.7122 25.3344 88.7109 24.9051V9.03138C88.7144 8.60276 88.8862 8.19338 89.188 7.89451C89.4993 7.5927 89.9125 7.42413 90.3423 7.42364H96.6469C102.457 7.42364 106.656 11.4281 106.656 16.9735H106.655ZM103.365 16.9735C103.389 16.0879 103.23 15.207 102.898 14.388C102.564 13.5626 102.066 12.8163 101.435 12.1959C100.796 11.568 100.039 11.0775 99.2096 10.7536C98.3738 10.4269 97.4826 10.2719 96.5876 10.2976H91.9726V23.5996H96.7261C97.6077 23.6214 98.4848 23.465 99.3065 23.1393C100.122 22.8169 100.865 22.3303 101.491 21.7087C102.11 21.0947 102.597 20.3571 102.922 19.5421C103.245 18.7334 103.396 17.8647 103.366 16.9926V16.9735H103.365ZM129.756 16.9438C129.756 22.3312 125.27 26.5128 119.476 26.5128C113.683 26.5128 109.196 22.3302 109.196 16.9438C109.196 11.5575 113.683 7.42364 119.476 7.42364C125.27 7.42364 129.756 11.548 129.756 16.9438ZM112.514 16.9438C112.514 17.8347 112.695 18.717 113.047 19.5389C113.403 20.3669 113.92 21.1135 114.565 21.7342C115.222 22.3653 115.993 22.8606 116.835 23.1924C117.686 23.5288 118.593 23.6976 119.506 23.6897C121.345 23.6897 123.107 22.9792 124.407 21.714C125.707 20.4488 126.438 18.734 126.438 16.9438C126.439 16.0591 126.26 15.1837 125.912 14.3732C125.559 13.5527 125.047 12.8133 124.406 12.1991C123.755 11.5746 122.99 11.0854 122.154 10.7589C121.31 10.4283 120.411 10.2645 119.506 10.2764C117.686 10.2545 115.928 10.9442 114.593 12.2034C113.283 13.4548 112.535 15.159 112.514 16.9438ZM148.564 17.0955C148.944 17.0955 149.307 17.2418 149.576 17.5017C149.846 17.7615 149.998 18.1146 150 18.4837V24.0514C147.78 25.6149 145.153 26.4702 142.454 26.5086C141.138 26.5465 139.827 26.3276 138.592 25.8638C137.37 25.4059 136.248 24.7087 135.289 23.8117C134.347 22.9296 133.589 21.8621 133.063 20.6737C132.545 19.4996 132.273 18.2287 132.263 16.9417C132.263 11.5469 136.779 7.42364 142.652 7.42364C144.802 7.42855 146.913 8.01014 148.773 9.10985C148.952 9.21378 149.106 9.35377 149.227 9.51921C149.595 10.029 149.579 10.7272 149.188 11.2192L149.119 11.3157C148.889 11.6021 148.555 11.7908 148.186 11.8428C147.819 11.8954 147.446 11.8073 147.138 11.5957C145.781 10.7283 144.214 10.2613 142.612 10.2467C141.696 10.2286 140.786 10.388 139.928 10.7165C139.074 11.0442 138.296 11.5331 137.638 12.1567C136.985 12.7733 136.46 13.5173 136.096 14.3445C135.737 15.1624 135.548 16.0471 135.542 16.9428C135.541 17.8449 135.726 18.7371 136.084 19.5622C136.444 20.3894 136.969 21.1413 137.631 21.7692C138.299 22.4017 139.083 22.8946 139.938 23.2199C140.798 23.5487 141.717 23.7078 142.642 23.6866C144.211 23.6445 145.744 23.2002 147.099 22.3949V18.541C147.092 18.3508 147.125 18.1614 147.196 17.9853C147.268 17.8068 147.375 17.6454 147.511 17.5112C147.649 17.3765 147.813 17.2705 147.994 17.1984C148.175 17.1273 148.369 17.0923 148.564 17.0966V17.0955Z" fill="#1A1523"/>
</g>
<defs>
<linearGradient id="paint0_linear_30_39" x1="4.74901e-06" y1="664.681" x2="2830.05" y2="2141.54" gradientUnits="userSpaceOnUse">
<stop stop-color="#33BBFF"/>
<stop offset="1" stop-color="#7733FF"/>
</linearGradient>
<linearGradient id="paint1_linear_30_39" x1="1834.56" y1="793.488" x2="222.254" y2="-191.021" gradientUnits="userSpaceOnUse">
<stop stop-color="#99C2FF"/>
<stop offset="1" stop-color="white"/>
</linearGradient>
<linearGradient id="paint2_linear_30_39" x1="894.951" y1="798.639" x2="660.735" y2="285.085" gradientUnits="userSpaceOnUse">
<stop stop-color="#99C2FF"/>
<stop offset="1" stop-color="white"/>
</linearGradient>
<clipPath id="clip0_30_39">
<rect width="150" height="34" fill="white"/>
</clipPath>
</defs>
</svg>
