<svg width="150" height="35" viewBox="0 0 150 35" fill="none" xmlns="http://www.w3.org/2000/svg">
<g clip-path="url(#clip0_30_20)">
<path d="M70.6553 0.374512L70.5775 9.79236L70.6553 9.7574C79.5453 7.51811 81.4496 13.6304 81.4496 16.5868V28.3577H76.1147V16.9272C76.1147 15.1805 75.2691 12.6894 70.6553 14.133L70.6554 28.3577H65.433V1.47157L70.6553 0.374512ZM128.021 17.2548V28.3486H123.062V17.2548L123.059 17.1158C122.984 15.199 121.363 12.6531 117.903 14.296V28.3486H112.467L112.466 17.1404C112.441 15.5213 111.864 13.1872 107.303 13.5863V28.3486H102.22V10.6132L102.366 10.522C103.595 9.75574 110.081 7.72972 115.285 10.9203C124.027 6.51322 128.021 11.2615 128.021 17.2548ZM91.2476 3.63715V9.43279L97.9467 9.43306V13.7816L91.4977 13.7815L91.4978 20.9468C91.4978 21.9344 91.5325 22.655 91.7845 23.0797C93.3499 24.4464 95.404 24.6218 97.9467 23.6061L98.3771 27.8987C93.1515 29.4083 89.5717 28.8767 87.6376 26.3038C86.6015 25.1273 86.0871 23.5103 86.0871 21.4665V4.77113L91.2476 3.63715Z" fill="#111111"/>
<path d="M130.914 9.44946H136.578L140.405 15.4347L143.933 9.44946H149.514L143.215 18.5782L150 28.3486H144.134L140.214 21.7786L136.294 28.3486H130.609L137.446 18.5782L130.914 9.44946Z" fill="#4065C5"/>
<path d="M37.2172 8.87988L52.524 15.4137V19.9541L37.2172 26.3969L36.0031 21.9315L47.3223 17.6308L36.0031 13.3135L37.2172 8.87988Z" fill="#111111"/>
<path d="M15.3069 8.87988L0 15.4139L0 19.9542L15.3069 26.3971L16.5209 21.9317L5.20173 17.6309L16.5209 13.3136L15.3069 8.87988Z" fill="#111111"/>
<path d="M29.6145 0H34.88L23.1824 34.7126H17.644L29.6145 0Z" fill="#4065C5"/>
</g>
<defs>
<clipPath id="clip0_30_20">
<rect width="150" height="35" fill="white"/>
</clipPath>
</defs>
</svg>
