<svg width="150" height="34" viewBox="0 0 150 34" fill="none" xmlns="http://www.w3.org/2000/svg">
<g clip-path="url(#clip0_30_11)">
<path d="M6.31759 22.6017L12.6515 18.8519L12.7575 18.5251L12.6515 18.3445H12.3417L11.282 18.2757L7.66263 18.1725L4.52421 18.0349L1.48362 17.8629L0.717352 17.6909L0 16.6932L0.0733656 16.1944L0.717352 15.7386L1.6385 15.8246L3.67643 15.9708L6.73333 16.1944L8.9506 16.332L12.2357 16.6932H12.7575L12.8308 16.4696L12.6515 16.332L12.5129 16.1944L9.35004 13.9325L5.92631 11.5416L4.13293 10.1656L3.16287 9.46896L2.67377 8.81533L2.46182 7.38768L3.34221 6.36424L4.52421 6.45024L4.82582 6.53625L6.02413 7.50808L8.58377 9.59796L11.926 12.1953L12.4151 12.6253L12.6107 12.4791L12.6352 12.3759L12.4151 11.9889L10.5973 8.52292L8.65714 4.99679L7.79305 3.53473L7.56481 2.6575C7.48329 2.29629 7.42623 1.99528 7.42623 1.62546L8.42889 0.189207L8.98321 0L10.3201 0.189207L10.8826 0.705226L11.714 2.7091L13.0591 5.86542L15.1459 10.157L15.7573 11.4298L16.0834 12.6081L16.2056 12.9693H16.4176V12.7629L16.5888 10.3462L16.9067 7.37908L17.2165 3.56053L17.3224 2.48549L17.8278 1.19544L18.8305 0.498819L19.6131 0.894434L20.2571 1.86627L20.1674 2.49409L19.7843 5.11719L19.0343 9.22815L18.5452 11.9803H18.8305L19.1566 11.6362L20.4771 9.78717L22.6944 6.86306L23.6726 5.70201L24.8139 4.42057L25.5475 3.80994H26.9333L27.9523 5.4096L27.4958 7.06087L26.0692 8.97014L24.8872 10.587L23.1917 12.9951L22.132 14.9216L22.2298 15.0764L22.4825 15.0506L26.3138 14.1905L28.3843 13.7949L30.8543 13.3477L31.9711 13.8981L32.0934 14.4571L31.6532 15.601L29.012 16.289L25.9144 16.9426L21.3005 18.0951L21.2434 18.1381L21.3086 18.2241L23.3873 18.4305L24.2759 18.4821H26.4524L30.5038 18.8003L31.5635 19.5399L32.1993 20.443L32.0934 21.131L30.463 22.0082L28.2621 21.4578L23.1265 20.1678L21.3657 19.7033H21.1211V19.8581L22.5884 21.3718L25.2785 23.9347L28.6452 27.2372L28.8164 28.0543L28.3843 28.6993L27.9278 28.6305L24.9688 26.2826L23.8275 25.2247L21.2434 22.9285H21.0722V23.1693L21.6673 24.0895L24.8139 29.0777L24.9769 30.6086L24.7487 31.1074L23.9335 31.4084L23.0368 31.2364L21.1945 28.5101L19.2951 25.4398L17.7626 22.6877L17.5751 22.7995L16.6703 33.0768L16.2464 33.6015L15.2682 33.9971L14.453 33.3435L14.021 32.2856L14.453 30.1957L14.9747 27.4694L15.3986 25.3022L15.7818 22.6103L16.01 21.7158L15.9937 21.6556L15.8062 21.6814L13.8824 24.4679L10.9559 28.6391L8.64083 31.2536L8.08652 31.4858L7.12461 30.9612L7.21428 30.0237L7.7523 29.1895L10.9559 24.8893L12.8879 22.2232L14.1351 20.6838L14.127 20.4602H14.0536L5.54318 26.2912L4.02696 26.4976L3.37482 25.8526L3.45633 24.7947L3.7661 24.4507L6.32574 22.5931L6.31759 22.6017Z" fill="#D97757"/>
<path d="M52.5624 28.854C48.4702 28.854 45.6742 26.4459 44.3536 22.7392C43.664 20.8077 43.3239 18.7569 43.3509 16.6931C43.3509 10.4751 45.9921 6.15775 51.8287 6.15775C55.7497 6.15775 58.1708 7.96382 59.5484 12.2726H61.2277L60.9994 6.32976C58.6517 4.7301 55.7171 3.92167 52.1466 3.92167C47.117 3.92167 42.8374 6.29536 40.4571 10.5783C39.2276 12.8399 38.6022 15.4109 38.6474 18.0176C38.6474 22.7736 40.775 26.9877 44.7693 29.327C46.9554 30.5595 49.4081 31.17 51.8858 31.0987C55.7823 31.0987 58.8718 30.3161 61.6108 28.9486L62.32 22.3952H60.6081C59.581 25.3881 58.3582 27.1855 56.3285 28.1402C55.334 28.6132 54.0786 28.854 52.5624 28.854ZM70.2109 6.15775L70.3739 3.23364H69.2164L64.0645 4.8677V5.75354L66.3469 6.87158V27.3231C66.3469 28.7164 65.6704 29.026 63.9014 29.2582V30.7547H72.6645V29.2582C70.8875 29.026 70.219 28.7164 70.219 27.3231V6.16635L70.2109 6.15775ZM105.06 31.0987H105.736L111.662 29.9118V28.381L110.831 28.3122C109.445 28.1746 109.086 27.8736 109.086 26.6781V15.7729L109.249 12.2726H108.312L102.712 13.124V14.6205L103.258 14.7237C104.774 14.9559 105.223 15.4031 105.223 16.5211V26.2395C103.772 27.4264 102.386 28.1746 100.739 28.1746C98.9131 28.1746 97.78 27.1941 97.78 24.9065V15.7815L97.943 12.2812H96.9811L91.3728 13.1326V14.6291L91.9515 14.7323C93.4678 14.9645 93.9161 15.4117 93.9161 16.5297V25.4999C93.9161 29.3012 95.954 31.1073 99.1984 31.1073C101.677 31.1073 103.706 29.714 105.231 27.779L105.068 31.1073L105.06 31.0987ZM88.7724 18.998C88.7724 14.1389 86.3268 12.2726 81.9086 12.2726C78.0121 12.2726 75.1834 13.9754 75.1834 16.7964C75.1834 17.6392 75.4687 18.2842 76.0475 18.7314L79.0147 18.3186C78.8843 17.3726 78.8191 16.7964 78.8191 16.5555C78.8191 14.9559 79.6261 14.1475 81.2646 14.1475C83.6857 14.1475 84.9084 15.9449 84.9084 18.8346V19.7807L78.7946 21.7157C76.7567 22.3006 75.5992 22.808 74.8247 23.9948C74.4143 24.7209 74.2158 25.5585 74.2541 26.4029C74.2541 29.155 76.0475 31.0987 79.1126 31.0987C81.3298 31.0987 83.2944 30.0409 85.0063 28.037C85.6176 30.0409 86.5551 31.0987 88.2262 31.0987C89.5794 31.0987 90.8021 30.5225 91.8945 29.3958L91.5684 28.209C91.0956 28.3466 90.6391 28.4154 90.1582 28.4154C89.2207 28.4154 88.7724 27.6328 88.7724 26.1019V18.998ZM80.9467 28.3466C79.2756 28.3466 78.2403 27.3231 78.2403 25.5257C78.2403 24.3044 78.7865 23.5906 79.9522 23.1778L84.9084 21.5179V26.5405C83.327 27.8048 82.3977 28.3466 80.9467 28.3466ZM132.547 29.9118V28.381L131.708 28.3122C130.322 28.1746 129.971 27.8736 129.971 26.6781V6.15775L130.134 3.23364H128.969L123.817 4.8677V5.75354L126.099 6.87158V13.597C124.814 12.6674 123.278 12.2026 121.722 12.2726C116.602 12.2726 112.608 16.3835 112.608 22.5328C112.608 27.5984 115.477 31.0987 120.205 31.0987C122.651 31.0987 124.779 29.843 126.099 27.8994L125.936 31.0987H126.621L132.547 29.9118ZM121.819 14.3109C124.265 14.3109 126.099 15.8073 126.099 18.5594V26.2997C124.974 27.4836 123.441 28.1353 121.852 28.1058C118.347 28.1058 116.57 25.1817 116.57 21.2771C116.57 16.891 118.6 14.3109 121.819 14.3109ZM145.076 18.181C144.62 15.9105 143.299 14.6205 141.465 14.6205C138.726 14.6205 136.827 16.7964 136.827 19.9183C136.827 24.5366 139.142 27.5296 142.884 27.5296C145.38 27.503 147.674 26.0781 148.908 23.7884L150 24.098C149.511 28.1058 146.071 31.0987 141.848 31.0987C136.892 31.0987 133.476 27.2285 133.476 21.7243C133.476 16.1771 137.185 12.2726 142.142 12.2726C145.843 12.2726 148.451 14.6205 149.291 18.697L136.378 22.8768V21.0363L145.076 18.1896V18.181Z" fill="black"/>
</g>
<defs>
<clipPath id="clip0_30_11">
<rect width="150" height="34" fill="white"/>
</clipPath>
</defs>
</svg>
