<svg width="111" height="66" viewBox="0 0 111 66" fill="none" xmlns="http://www.w3.org/2000/svg">
<path d="M48.2768 1.49848C48.293 1.29451 48.2633 1.08952 48.1897 0.898374C48.1161 0.707232 48.0005 0.53474 47.8513 0.393421C47.7021 0.252102 47.5231 0.145503 47.3272 0.0813628C47.1312 0.0172226 46.9234 -0.00284885 46.7187 0.0226055H41.2303C40.7246 -0.0360907 40.212 0.0198803 39.7312 0.186296C39.2505 0.352712 38.8141 0.625228 38.455 0.983285C38.0959 1.34134 37.8235 1.77559 37.6584 2.25327C37.4932 2.73095 37.4396 3.23959 37.5016 3.74082V50.3592C37.487 50.564 37.5183 50.7695 37.5932 50.9609C37.6681 51.1523 37.7848 51.3249 37.9349 51.4664C38.085 51.6078 38.2648 51.7146 38.4614 51.779C38.658 51.8435 38.8665 51.864 39.072 51.8392H44.548C45.0541 51.898 45.5671 51.842 46.0483 51.6753C46.5294 51.5087 46.966 51.2358 47.3251 50.8772C47.6843 50.5187 47.9566 50.0839 48.1215 49.6057C48.2863 49.1275 48.3394 48.6184 48.2768 48.1169V1.49848ZM111 17.2234C111 16.3489 110.348 15.9168 109.46 15.9168H102.8C102.28 15.8581 101.755 15.9791 101.315 16.2595C100.874 16.5399 100.544 16.9624 100.381 17.4558L90.9912 38.1221L77.9056 17.6719C77.5536 17.0514 77.0196 16.5517 76.3745 16.2393C75.7295 15.9269 75.0038 15.8166 74.2939 15.9229H66.3801C65.7216 15.8758 65.0614 15.9848 64.4538 16.2407C63.8462 16.4966 63.3087 16.8921 62.8856 17.3947L48.9407 32.2309L61.4364 50.3042C61.6575 50.7554 62.0006 51.1368 62.4274 51.406C62.8542 51.6752 63.348 51.8217 63.8538 51.829H71.3072C72.4234 51.829 73.0729 51.3846 73.0729 50.455C73.0276 49.9106 72.7988 49.3972 72.4234 48.9975L61.4385 32.8689L69.7697 23.9688L86.2367 48.1087L78.9683 63.3587C78.7351 63.7655 78.5843 64.2135 78.5243 64.6776C78.5243 65.5603 79.1779 65.9843 80.068 65.9843H86.6766C87.1962 66.0456 87.7211 65.9263 88.1619 65.6468C88.6027 65.3672 88.9321 64.9448 89.0939 64.4513L110.564 18.5444C110.801 18.1393 110.95 17.6892 111 17.2234V17.2234ZM13.4084 28.3434C11.2192 27.8542 10.5306 27.2406 10.5306 26.1459C10.5306 25.2939 11.211 24.615 13.1843 24.615H29.1622C29.6669 24.6764 30.1791 24.6231 30.6601 24.4592C31.141 24.2954 31.5781 24.0252 31.9383 23.6692C32.2985 23.3132 32.5723 22.8806 32.7392 22.4042C32.906 21.9278 32.9614 21.42 32.9012 20.9192V17.4681C32.9271 17.2649 32.9071 17.0586 32.8427 16.864C32.7783 16.6695 32.6711 16.4915 32.5289 16.3431C32.3867 16.1946 32.213 16.0794 32.0203 16.0057C31.8277 15.9319 31.621 15.9016 31.4151 15.9168H12.7095C4.37011 15.9229 0 20.7113 0 26.8085C0 32.239 3.36289 35.5455 10.0928 37.0295L20.831 39.4125C23.014 39.8915 23.6923 40.5133 23.6923 41.6222C23.6923 42.4621 23.0161 43.1409 21.0489 43.1409H4.39889C3.89317 43.0771 3.37943 43.1285 2.89679 43.2913C2.41415 43.4541 1.97533 43.724 1.61376 44.0804C1.25219 44.4368 0.9774 44.8704 0.81031 45.348C0.64322 45.8256 0.588239 46.3348 0.649556 46.8367V50.2817C0.623278 50.4846 0.642645 50.6907 0.706264 50.8852C0.769883 51.0797 0.876174 51.2578 1.01749 51.4067C1.15881 51.5557 1.33165 51.6717 1.52358 51.7464C1.71551 51.8212 1.92176 51.8529 2.1275 51.8392H20.3993C30.266 51.8392 34.2353 47.0487 34.2353 41.3756C34.2353 35.5128 30.8292 32.2023 24.1466 30.7285L13.4084 28.3434Z" fill="#8989A2"/>
</svg>
