<svg width="424" height="15" viewBox="0 0 424 15" fill="none" xmlns="http://www.w3.org/2000/svg">
<path d="M245.327 14.88C246.511 14.864 247.391 14.24 247.983 12.752L251.631 3.72803H249.983L247.471 10.256L244.815 3.72803H243.119L246.671 12.048L246.255 12.928C245.983 13.408 245.631 13.568 245.119 13.568C244.799 13.568 244.431 13.488 244.111 13.312L243.759 14.528C244.191 14.752 244.767 14.88 245.327 14.88Z" fill="#8989A2"/>
<path d="M238.15 3.53592C236.87 3.53592 235.846 4.14392 235.206 5.15192V0.815918H233.638V11.9999H235.206V10.5599C235.846 11.5839 236.87 12.1919 238.15 12.1919C240.326 12.1919 241.958 10.3999 241.958 7.85592C241.958 5.32792 240.326 3.53592 238.15 3.53592ZM237.766 10.8159C236.278 10.8159 235.206 9.58392 235.206 7.85592C235.206 6.12792 236.278 4.91192 237.766 4.91192C239.286 4.91192 240.358 6.12792 240.358 7.85592C240.358 9.58392 239.286 10.8159 237.766 10.8159Z" fill="#8989A2"/>
<path d="M225.036 0.815918V5.15192C224.396 4.14392 223.372 3.53592 222.092 3.53592C219.916 3.53592 218.284 5.32792 218.284 7.85592C218.284 10.3999 219.916 12.1919 222.092 12.1919C223.372 12.1919 224.396 11.5839 225.036 10.5599V11.9999H226.604V0.815918H225.036ZM222.476 10.8159C220.956 10.8159 219.884 9.58392 219.884 7.85592C219.884 6.12792 220.956 4.91192 222.476 4.91192C223.964 4.91192 225.036 6.12792 225.036 7.85592C225.036 9.58392 223.964 10.8159 222.476 10.8159Z" fill="#8989A2"/>
<path d="M212.96 10.7839C211.536 10.7839 210.528 9.79189 210.32 8.41589H216.832C216.832 5.45589 215.376 3.53589 212.848 3.53589C210.56 3.53589 208.72 5.35989 208.72 7.83989C208.72 10.3839 210.672 12.1919 212.976 12.1919C214.144 12.1919 215.584 11.6959 216.32 10.9119L215.328 9.88789C214.832 10.3999 213.824 10.7839 212.96 10.7839ZM212.912 4.94389C214.336 4.94389 215.12 5.87189 215.296 7.15189H210.336C210.592 5.80789 211.632 4.94389 212.912 4.94389Z" fill="#8989A2"/>
<path d="M206.977 10.5118C206.801 10.6878 206.481 10.8158 206.129 10.8158C205.665 10.8158 205.281 10.3998 205.281 9.82381V5.07181H207.233V3.72781H205.281V1.45581H203.729V3.72781H202.481V5.07181H203.729V9.93581C203.729 11.2638 204.625 12.1918 205.905 12.1918C206.497 12.1918 207.105 11.9678 207.553 11.5998L206.977 10.5118Z" fill="#8989A2"/>
<path d="M198.128 12.1919C199.936 12.1919 201.264 11.1999 201.264 9.63189C201.264 7.98389 199.808 7.53589 198.448 7.13589C197.056 6.70389 196.544 6.51189 196.544 5.87189C196.544 5.24789 197.184 4.89589 198 4.89589C198.72 4.89589 199.552 5.16789 200.352 5.66389L201.056 4.49589C200.16 3.90389 199.072 3.53589 198 3.53589C196.24 3.53589 194.976 4.52789 194.992 6.04789C194.992 7.39189 195.936 7.93589 197.84 8.46389C198.864 8.75189 199.712 8.99189 199.712 9.75989C199.712 10.3999 199.072 10.8319 198.144 10.8319C197.168 10.8319 196.224 10.4639 195.344 9.82389L194.592 10.9599C195.584 11.7599 196.912 12.1919 198.128 12.1919Z" fill="#8989A2"/>
<path d="M191.254 3.72803V9.08803C191.126 10.064 190.134 10.816 188.982 10.816C187.862 10.816 187.078 9.95203 187.078 8.72003V3.72803H185.526V8.99203C185.526 10.864 186.806 12.192 188.63 12.192C189.75 12.192 190.758 11.616 191.254 10.8V12H192.838V3.72803H191.254Z" fill="#8989A2"/>
<path d="M180.941 5.31189V3.72789H179.357V11.9999H180.941V7.29589C181.085 5.85589 182.301 4.91189 184.013 4.91189V3.53589C182.589 3.53589 181.469 4.22389 180.941 5.31189Z" fill="#8989A2"/>
<path d="M172.256 11.9998H173.872V2.51181H177.488V1.00781H168.656V2.51181H172.256V11.9998Z" fill="#8989A2"/>
<path d="M0 6H144" stroke="#D6D6D6"/>
<path d="M280 6H424" stroke="#D6D6D6"/>
</svg>
